<svg width="168" height="30" viewBox="0 0 168 30" fill="none" xmlns="http://www.w3.org/2000/svg">
<g clip-path="url(#clip0_1_103)">
<path d="M22.3559 23.2841V2.4082H28.3748V29.3425H18.3213L6.94488 8.4666H6.0189V29.3425H0V2.4082H9.9874L21.3638 23.2841H22.3559Z" fill="url(#paint0_linear_1_103)"/>
<path d="M54.2398 29.3425H33.1406V2.4082H53.9753V7.59068H39.2257V12.9192H52.7847V18.1016H39.2257V24.087H54.2398V29.3425Z" fill="url(#paint1_linear_1_103)"/>
<path d="M68.3222 11.4593L64.1553 2.4082H57.6073L63.8246 15.4739L57.0781 29.3425H63.6262L67.4624 21.4593L67.8592 20.5104L70.2403 15.5469L68.9175 12.7002L68.3222 11.4593Z" fill="url(#paint2_linear_1_103)"/>
<path d="M72.2284 15.5469L78.4458 2.4082H71.9639L68.8552 9.12353L69.9135 11.4593L70.5087 12.7002L71.8316 15.5469L69.4505 20.5104L69.0536 21.4593L68.7891 21.8973L72.4269 29.3425H78.9087L72.2284 15.5469Z" fill="black"/>
<path d="M91.2071 29.9991C87.1724 29.9991 84.2622 29.1232 82.3441 27.3714C80.426 25.6196 79.5 22.8459 79.5 19.0502C79.5 15.4006 80.426 12.6269 82.3441 10.9481C84.2622 9.26922 87.1724 8.32031 91.2071 8.32031C94.6465 8.32031 97.2921 9.05024 99.2102 10.5101C101.128 11.9699 102.187 14.1597 102.319 17.0064H96.4984C96.2339 14.6707 94.5142 13.4298 91.2732 13.4298C89.1567 13.4298 87.7016 13.8678 86.7756 14.6707C85.8496 15.5466 85.4528 17.0064 85.4528 19.0502C85.4528 21.167 85.9157 22.6269 86.7756 23.5028C87.6354 24.3787 89.1567 24.8167 91.2732 24.8167C94.5803 24.8167 96.3 23.5028 96.5646 20.8021H102.451C102.253 23.7948 101.194 26.0575 99.2764 27.5904C97.2921 29.2692 94.6465 29.9991 91.2071 29.9991Z" fill="url(#paint3_linear_1_103)"/>
<path d="M118.921 8.32117C121.5 8.32117 123.352 8.9781 124.41 10.219C125.535 11.5328 126.064 13.6496 126.064 16.6423V29.2701H120.177V16.9343C120.177 14.5985 118.854 13.3577 116.143 13.3577C113.298 13.3577 111.843 15.0365 111.777 18.3212V29.3431H105.891V0H111.777V12.5547C112.439 11.0949 113.365 10 114.489 9.34307C115.68 8.68613 117.135 8.32117 118.921 8.32117Z" fill="url(#paint4_linear_1_103)"/>
<path d="M139.556 8.32031C142.995 8.32031 145.509 8.97725 147.096 10.3641C148.684 11.751 149.544 13.7948 149.544 16.7145V29.4152H143.657V26.2035C142.202 28.8313 139.887 30.0721 136.778 30.0721C134.265 30.0721 132.413 29.5612 131.09 28.4663C129.833 27.3714 129.172 25.8386 129.172 23.7948C129.172 19.4152 132.281 17.1524 138.498 17.1524C140.482 17.1524 142.136 17.3714 143.591 17.7364V16.7145C143.591 15.4736 143.26 14.5977 142.599 14.0867C141.937 13.5028 140.945 13.2838 139.49 13.2838C137.043 13.2838 135.654 14.0137 135.521 15.4006H130.098C130.362 10.6561 133.471 8.32031 139.556 8.32031ZM138.63 25.4736C140.151 25.4736 141.342 25.1086 142.268 24.3787C143.128 23.6488 143.591 22.6269 143.657 21.313V21.24C142.4 20.8751 140.879 20.7291 139.027 20.7291C136.183 20.7291 134.728 21.459 134.728 22.9918C134.662 24.6707 135.984 25.4736 138.63 25.4736Z" fill="url(#paint5_linear_1_103)"/>
<path d="M167.996 8.97863V14.0881H161.514V21.1684C161.514 22.4093 161.779 23.3582 162.242 23.9421C162.771 24.5261 163.564 24.818 164.689 24.818C165.681 24.818 166.805 24.5261 167.996 23.9421V28.9786C166.871 29.7086 165.483 30.0005 163.697 30.0005C160.853 30.0005 158.802 29.2706 157.546 27.8837C156.289 26.4969 155.627 24.2341 155.627 21.1684V14.0881H152.32V8.97863H155.627V3.86914H161.514V8.97863H167.996Z" fill="url(#paint6_linear_1_103)"/>
<path d="M64.8176 12.9199H37.7656V18.1754H64.8176V12.9199Z" fill="url(#paint7_linear_1_103)"/>
</g>
<defs>
<linearGradient id="paint0_linear_1_103" x1="0" y1="15.8754" x2="28.3748" y2="15.8754" gradientUnits="userSpaceOnUse">
<stop stop-color="#F55823"/>
<stop offset="1" stop-color="#FF9F00"/>
</linearGradient>
<linearGradient id="paint1_linear_1_103" x1="33.1406" y1="15.8754" x2="54.2398" y2="15.8754" gradientUnits="userSpaceOnUse">
<stop stop-color="#F55823"/>
<stop offset="1" stop-color="#FF9F00"/>
</linearGradient>
<linearGradient id="paint2_linear_1_103" x1="57.0781" y1="15.8754" x2="70.2403" y2="15.8754" gradientUnits="userSpaceOnUse">
<stop stop-color="#F55823"/>
<stop offset="1" stop-color="#FF9F00"/>
</linearGradient>
<linearGradient id="paint3_linear_1_103" x1="79.5" y1="19.1597" x2="102.451" y2="19.1597" gradientUnits="userSpaceOnUse">
<stop stop-color="#F55823"/>
<stop offset="1" stop-color="#FF9F00"/>
</linearGradient>
<linearGradient id="paint4_linear_1_103" x1="105.891" y1="14.6715" x2="126.064" y2="14.6715" gradientUnits="userSpaceOnUse">
<stop stop-color="#F55823"/>
<stop offset="1" stop-color="#FF9F00"/>
</linearGradient>
<linearGradient id="paint5_linear_1_103" x1="129.172" y1="19.1962" x2="149.544" y2="19.1962" gradientUnits="userSpaceOnUse">
<stop stop-color="#F55823"/>
<stop offset="1" stop-color="#FF9F00"/>
</linearGradient>
<linearGradient id="paint6_linear_1_103" x1="152.32" y1="16.9348" x2="167.996" y2="16.9348" gradientUnits="userSpaceOnUse">
<stop stop-color="#F55823"/>
<stop offset="1" stop-color="#FF9F00"/>
</linearGradient>
<linearGradient id="paint7_linear_1_103" x1="37.7656" y1="15.5477" x2="64.8176" y2="15.5477" gradientUnits="userSpaceOnUse">
<stop stop-color="#F55823"/>
<stop offset="1" stop-color="#FF9F00"/>
</linearGradient>
<clipPath id="clip0_1_103">
<rect width="168" height="30" fill="white"/>
</clipPath>
</defs>
</svg>
