<svg width="52" height="52" viewBox="0 0 52 52" fill="none" xmlns="http://www.w3.org/2000/svg">
<circle cx="26" cy="26" r="26" fill="#DADCDF"/>
<path d="M18.6443 30.1658C17.0548 31.0974 12.8874 32.9997 15.4256 35.3801C16.6655 36.5429 18.0465 37.3745 19.7826 37.3745H29.6895C31.4257 37.3745 32.8067 36.5429 34.0465 35.3801C36.5848 32.9997 32.4174 31.0974 30.8279 30.1658C27.1007 27.9812 22.3715 27.9812 18.6443 30.1658Z" stroke="black" stroke-width="1.5" stroke-linecap="round" stroke-linejoin="round"/>
<path d="M29.783 19.6806C29.783 22.4727 27.5195 24.7361 24.7274 24.7361C21.9353 24.7361 19.6719 22.4727 19.6719 19.6806C19.6719 16.8884 21.9353 14.625 24.7274 14.625C27.5195 14.625 29.783 16.8884 29.783 19.6806Z" stroke="black" stroke-width="1.5"/>
<path d="M33.5781 17.8331C33.5781 16.7592 34.427 15.8887 35.474 15.8887C36.521 15.8887 37.3698 16.7592 37.3698 17.8331C37.3698 18.2202 37.2595 18.5809 37.0694 18.8839C36.5029 19.787 35.474 20.6481 35.474 21.722V22.2081" stroke="black" stroke-width="1.5" stroke-linecap="round"/>
<path d="M35.4688 24.7363H35.4793" stroke="black" stroke-width="1.5" stroke-linecap="round" stroke-linejoin="round"/>
</svg>
