<svg width="20" height="19" viewBox="0 0 20 19" fill="none" xmlns="http://www.w3.org/2000/svg">
<path d="M10.3239 0.0776367C5.17947 0.0776367 0.970337 4.24711 0.970337 9.34313C0.970337 14.4392 5.17947 18.6086 10.3239 18.6086C15.4684 18.6086 19.6775 14.4392 19.6775 9.34313C19.6775 4.24711 15.4684 0.0776367 10.3239 0.0776367ZM13.5977 11.1962C13.3171 11.6595 12.7558 11.7522 12.2881 11.5668L9.85625 10.177C9.57564 9.99171 9.38854 9.71375 9.38854 9.34313V4.71038C9.38854 4.15445 9.76266 3.78383 10.3239 3.78383C10.8851 3.78383 11.2593 4.15445 11.2593 4.71038V8.7872L13.2235 9.89906C13.6912 10.177 13.7847 10.733 13.5977 11.1962Z" fill="url(#paint0_linear_1_4554)"/>
<defs>
<linearGradient id="paint0_linear_1_4554" x1="0.970337" y1="9.34313" x2="19.6775" y2="9.34313" gradientUnits="userSpaceOnUse">
<stop stop-color="#F55823"/>
<stop offset="1" stop-color="#FF9F00"/>
</linearGradient>
</defs>
</svg>
