<svg width="12" height="11" viewBox="0 0 12 11" fill="none" xmlns="http://www.w3.org/2000/svg">
<path fill-rule="evenodd" clip-rule="evenodd" d="M2.11626 0.276386L6.11585 0.272704C10.061 0.268921 9.09677 0.272703 9.36468 0.348165C9.51223 0.393463 9.75683 0.487739 9.90827 0.563303C10.0908 0.653796 10.2811 0.797256 10.4946 1.00483C10.7432 1.24267 10.8441 1.37467 10.9722 1.62754C11.0616 1.80495 11.1586 2.06539 11.1897 2.21253C11.2363 2.42767 11.248 2.90702 11.248 4.81678C11.248 6.72644 11.2363 7.2058 11.1897 7.42094C11.1586 7.56439 11.0616 7.82851 10.9722 8.00592C10.8441 8.25879 10.7393 8.3909 10.4946 8.63242C10.2461 8.87026 10.1102 8.9721 9.85008 9.09664C9.66756 9.18346 9.39577 9.27783 9.24821 9.308C9.02295 9.3533 9.42419 9.36465 3.06764 9.36465L1.90265 9.93071C1.06785 10.3384 0.69891 10.4969 0.601871 10.4969C0.528043 10.4969 0.396035 10.4629 0.310652 10.4214C0.207068 10.3711 0.129353 10.2955 0.0776123 10.1949C1.05136e-06 10.0478 0 9.96854 0 6.25854C0 3.08443 0.0115548 2.43523 0.0581829 2.21253C0.0892683 2.06539 0.186308 1.80495 0.275678 1.62754C0.403803 1.37467 0.504731 1.24267 0.753312 1.00483C0.951276 0.81239 1.161 0.653797 1.32021 0.570769C1.45999 0.49909 1.69293 0.404712 1.84447 0.359415L2.11626 0.276386ZM2.65985 3.23157C2.57446 3.28065 2.47344 3.37881 2.43857 3.44671C2.4036 3.51471 2.37251 3.6279 2.36863 3.6958C2.36863 3.76379 2.4036 3.88077 2.44245 3.96002C2.48509 4.03926 2.57835 4.13742 2.66373 4.18272L2.81517 4.26953C9.35824 4.26953 8.41719 4.26953 8.56863 4.19397C8.67221 4.14366 8.74982 4.06819 8.80167 3.96758C8.84431 3.88455 8.87928 3.76757 8.87928 3.70336C8.87928 3.64303 8.84431 3.52217 8.80167 3.43914C8.74982 3.33852 8.67221 3.26307 8.56863 3.21276C8.41719 3.14098 9.35824 3.1373 6.12362 3.1373H2.81517L2.65985 3.23157ZM2.65985 5.49615C2.57446 5.54891 2.47344 5.64707 2.43857 5.71496C2.4036 5.78296 2.37251 5.89237 2.36863 5.96037C2.36863 6.02827 2.4036 6.14903 2.44245 6.22449C2.48509 6.30752 2.57835 6.4019 2.66373 6.45098L2.81517 6.534C9.35824 6.53779 8.41719 6.534 8.56863 6.46232C8.67221 6.41201 8.74982 6.33645 8.80167 6.23584C8.84431 6.15281 8.87928 6.03205 8.87928 5.97162C8.87928 5.90751 8.84431 5.79053 8.80167 5.7075C8.74982 5.60678 8.67221 5.53132 8.56863 5.48101C8.41719 5.40555 9.35824 5.40555 6.12362 5.40555H2.81517L2.65985 5.49615Z" fill="url(#paint0_linear_1_4559)"/>
<defs>
<linearGradient id="paint0_linear_1_4559" x1="0" y1="5.38431" x2="11.248" y2="5.38431" gradientUnits="userSpaceOnUse">
<stop stop-color="#F55823"/>
<stop offset="1" stop-color="#FF9F00"/>
</linearGradient>
</defs>
</svg>
