<svg width="17" height="22" viewBox="0 0 17 22" fill="none" xmlns="http://www.w3.org/2000/svg">
<path d="M9.97099 0.473203C9.87582 0.394092 9.76307 0.339051 9.64229 0.312715C9.5214 0.286276 9.396 0.289364 9.27655 0.321564C9.15711 0.353867 9.04723 0.414356 8.95608 0.497892C8.86493 0.58153 8.79518 0.685846 8.75279 0.802096L6.6309 6.62837L4.30068 4.37056C4.22239 4.29463 4.12897 4.2362 4.0265 4.19906C3.92403 4.16192 3.81477 4.1469 3.70603 4.15503C3.59739 4.16316 3.49163 4.19412 3.39575 4.24607C3.29997 4.29803 3.21622 4.36973 3.15007 4.45646C1.061 7.19358 0 9.94705 0 12.6398C0 14.8909 0.894231 17.0496 2.48598 18.6413C4.07763 20.233 6.23656 21.1271 8.48757 21.1271C10.7386 21.1271 12.8975 20.233 14.4892 18.6413C16.0809 17.0496 16.9751 14.8909 16.9751 12.6398C16.9751 6.90614 12.0764 2.22364 9.97099 0.473203Z" fill="url(#paint0_linear_1_4541)"/>
<defs>
<linearGradient id="paint0_linear_1_4541" x1="-2.94909e-07" y1="-4.17247" x2="23.1574" y2="29.3393" gradientUnits="userSpaceOnUse">
<stop offset="0.175295" stop-color="#FF0F65"/>
<stop offset="0.412259" stop-color="#FF6B5F"/>
<stop offset="0.479632" stop-color="#E46C8B"/>
<stop offset="0.545288" stop-color="#A860EC"/>
<stop offset="0.621356" stop-color="#AD5EE3"/>
<stop offset="0.694281" stop-color="#BE55BF"/>
<stop offset="0.762671" stop-color="#D5458A"/>
<stop offset="0.910453" stop-color="#F91748"/>
</linearGradient>
</defs>
</svg>
