<svg width="24" height="24" viewBox="0 0 24 24" fill="none" xmlns="http://www.w3.org/2000/svg">
<path d="M9.69341 18.4429C9.18518 19.5519 7.49177 22.1403 2.73359 22.1403C2.49491 22.1403 2.2655 22.0456 2.09677 21.8769C1.92805 21.7082 1.83339 21.4788 1.83339 21.2401C1.83339 16.481 4.42185 14.7877 5.53089 14.2805C5.63892 14.2312 5.75414 14.2044 5.87245 14.2003C5.99077 14.1962 6.10907 14.2147 6.21915 14.2569C6.33026 14.298 6.43211 14.3608 6.51853 14.441C6.60495 14.5223 6.67491 14.619 6.72326 14.726C6.77265 14.834 6.80042 14.9502 6.80453 15.0686C6.80865 15.1858 6.78911 15.3041 6.74796 15.4153C6.70681 15.5253 6.64404 15.6272 6.56277 15.7136C6.48252 15.8 6.38582 15.87 6.2778 15.9193C5.55455 16.2485 3.95785 17.3092 3.67596 20.2967C6.66359 20.0159 7.72738 18.4192 8.05453 17.696C8.10391 17.588 8.17387 17.4913 8.26029 17.411C8.34671 17.3298 8.44855 17.267 8.55863 17.2259C8.66974 17.1847 8.78703 17.1652 8.90534 17.1693C9.02365 17.1734 9.1399 17.2012 9.24792 17.2506C9.35492 17.2989 9.45163 17.3689 9.53291 17.4553C9.61316 17.5417 9.67591 17.6435 9.71706 17.7547C9.75924 17.8647 9.77776 17.983 9.77364 18.1013C9.76953 18.2186 9.74176 18.3349 9.69341 18.4429ZM23.4217 2.23991C23.3949 1.80063 23.2077 1.38708 22.897 1.07639C22.5863 0.764676 22.1727 0.578477 21.7334 0.551729C20.3178 0.46737 16.7005 0.596993 13.6995 3.59789L8.13477 9.16656C8.05143 9.24989 7.95164 9.31676 7.84259 9.36202C7.73354 9.40729 7.61626 9.43095 7.49795 9.43095C7.25927 9.43095 7.02985 9.33631 6.86112 9.16759C6.69137 8.99888 6.59672 8.76946 6.59672 8.53079C6.59672 8.29212 6.69137 8.0627 6.86009 7.89398L9.84874 4.90442C9.9115 4.84166 9.95368 4.7614 9.97117 4.67396C9.98763 4.58754 9.97941 4.49701 9.94546 4.41471C9.91151 4.33344 9.8539 4.26246 9.77983 4.21308C9.70678 4.1637 9.62036 4.13696 9.53085 4.13696H6.59878C6.36112 4.13593 6.12656 4.18119 5.90743 4.27172C5.6883 4.36225 5.48871 4.49496 5.32204 4.66368L1.462 8.52564C1.22538 8.76225 1.05871 9.05956 0.982579 9.38568C0.905419 9.71077 0.920851 10.0513 1.02682 10.3692C1.13278 10.686 1.32518 10.9679 1.58238 11.1819C1.83957 11.3959 2.1513 11.5348 2.48257 11.5811L6.81174 12.186L11.786 17.16L12.3899 21.4911C12.4372 21.8224 12.5751 22.1341 12.789 22.3913C13.0041 22.6474 13.286 22.8398 13.6039 22.9447C13.788 23.0065 13.9824 23.0384 14.1769 23.0384C14.4135 23.0384 14.6471 22.9921 14.8652 22.9015C15.0843 22.811 15.2818 22.6793 15.4485 22.5116L19.3106 18.6517C19.4783 18.484 19.611 18.2855 19.7015 18.0664C19.7921 17.8472 19.8384 17.6117 19.8373 17.375V14.4431C19.8373 14.3536 19.8106 14.2672 19.7612 14.1931C19.7118 14.119 19.6408 14.0614 19.5585 14.0275C19.4762 13.9935 19.3867 13.9842 19.2993 14.0017C19.2118 14.0192 19.1316 14.0624 19.0688 14.1252L16.0791 17.1137C15.9917 17.2012 15.8867 17.2701 15.7715 17.3154C15.6563 17.3606 15.5339 17.3822 15.4094 17.3771C15.2859 17.373 15.1645 17.3431 15.0534 17.2896C14.9413 17.2361 14.8425 17.16 14.7613 17.0664C14.6131 16.8884 14.539 16.6601 14.5514 16.4286C14.5637 16.1971 14.6625 15.979 14.8291 15.8175L20.3733 10.2735C23.3764 7.27159 23.506 3.65446 23.4217 2.23786V2.23991Z" fill="url(#paint0_linear_1_4538)"/>
<defs>
<linearGradient id="paint0_linear_1_4538" x1="0.934204" y1="11.7868" x2="23.4382" y2="11.7868" gradientUnits="userSpaceOnUse">
<stop stop-color="#F55823"/>
<stop offset="1" stop-color="#FF9F00"/>
</linearGradient>
</defs>
</svg>
